# xmcd CD database file
#
# Track frame offsets:
#	150
#	25360
#	45285
#	81712
#
# Disc length: 1170 seconds
#
# Revision: 1
# Processed by: cddbd v1.5PL3 Copyright (c) Steve Scherf et al.
# Submitted via: CDex 1.51
#
DISCID=2b049004
DTITLE=TWO-MIX - TRUTH 〜A Great Detective of Love〜
DYEAR=1998
DGENRE=JPop
TTITLE0=TRUTH 〜A Great Detective of Love〜
TTITLE1=Key of Love 〜A Detective in Love〜
TTITLE2=TRUTH 〜A Great Detective of Love〜 [INSTRUMENTAL]
TTITLE3=CD-EXTRA
EXTD=YEAR: 1998
EXTT0=
EXTT1=
EXTT2=
EXTT3=
PLAYORDER=
